<svg width="187" height="45" viewBox="0 0 187 45" fill="none" xmlns="http://www.w3.org/2000/svg">
<path d="M29.3118 38.8665C25.8826 37.058 21.7019 34.9911 18.2022 32.3605C20.8563 30.2232 29.0064 23.2709 34.8313 13.8994C41.3843 3.51799 31.5431 5.13862 31.5431 5.13862C31.5431 5.13862 34.2441 6.43043 31.0029 11.7151C28.4193 16.0133 22.7588 24.4688 19.3531 27.7335C22.336 17.7748 24.0271 6.2895 16.9339 5.86673C5.00231 5.16211 -0.399793 26.5356 0.0229803 30.2467C0.445754 33.9577 1.73756 35.9306 7.42151 34.8972C7.42151 34.8972 3.94538 34.31 3.94538 28.8374C3.94538 23.3648 10.7097 7.39341 16.5111 7.39341C20.1987 7.39341 18.3432 19.2076 14.7966 29.3776C13.082 27.5691 11.7902 25.5022 11.2265 23.1769C11.2265 23.1769 8.36101 27.3107 13.3638 33.1826C11.6258 37.4573 9.62933 41.0743 7.75034 42.7889C7.75034 42.7889 11.5788 45.443 13.7396 42.0138C14.2329 41.2622 15.2428 39.0544 16.4172 36.1185C17.1688 36.7292 17.9908 37.3399 18.9069 37.974C31.1203 46.2651 36.9217 47.4864 39.2235 40.2053C39.2469 40.2288 36.0057 42.3896 29.3118 38.8665Z" fill="#535353"/>
<path d="M55.5241 18.9024C55.5241 18.9024 52.2359 16.765 51.3669 17.9159C50.4978 19.0433 49.6758 19.3956 49.6758 19.3956C49.6758 19.3956 50.4274 16.9295 51.132 16.3892C51.8366 15.849 49.1356 14.4633 48.1021 15.0505C48.1021 15.0505 44.7904 21.0632 43.4281 29.4248C42.6765 29.5187 41.9719 29.4952 41.3377 29.3778C43.0758 20.2647 36.241 18.2682 34.0332 19.0668C32.5769 19.607 31.8958 21.7913 32.6709 24.3045C28.5606 28.4383 29.2652 34.9208 30.7449 36.424C32.2951 37.9977 38.1435 40.8631 40.8915 31.2098C41.784 31.3272 42.5826 31.2803 43.1698 31.2098C42.9584 32.9244 42.8409 34.7329 42.8644 36.5884C42.8644 36.5884 44.626 37.7158 46.2701 36.8937C46.2701 36.8937 46.7398 28.5557 51.7896 23.2006C51.7896 23.2006 50.8501 27.7102 56.4871 27.3579C56.5106 27.3579 55.0309 22.9892 55.5241 18.9024ZM37.0865 21.8618C38.1904 23.2241 38.3079 25.4319 37.9556 27.7102C36.8047 26.6063 36.1705 25.197 35.9591 24.0461C35.4894 21.439 37.0865 21.8618 37.0865 21.8618ZM33.8922 35.6959C32.7648 34.3806 33.8687 30.0354 34.362 27.4048C34.7143 27.8511 35.1371 28.2974 35.6068 28.7436C36.2175 29.3073 36.8282 29.7301 37.4388 30.0824C36.4289 33.582 34.5969 36.5414 33.8922 35.6959Z" fill="#535353"/>
<path d="M95.969 24.5154C96.9555 12.2315 104.237 2.60163 104.237 2.60163C104.237 2.60163 103.062 -0.38127 100.713 0.722638C98.3647 1.82655 94.959 11.4094 93.8317 14.6976C92.7043 17.9859 89.3221 18.5731 89.3221 18.5731C89.51 17.4457 88.8993 15.825 86.1043 15.5667C83.3328 15.2848 81.3598 16.6941 81.3598 16.6941C83.873 7.48701 86.574 5.77243 86.5975 4.87991C86.6445 3.98739 84.0609 2.69558 82.6751 2.76604C81.3129 2.8365 78.4944 13.5233 76.451 19.0663C74.4076 24.6093 71.2368 29.9175 69.804 28.9075C68.3478 27.8976 72.3877 17.9389 72.6695 17.0934C72.9514 16.2243 71.2133 15.0969 69.9215 15.1674C69.4987 15.1909 68.5592 16.8585 67.4318 19.0663C66.3749 17.6805 64.7308 16.2478 63.0162 17.0464C60.0333 18.4556 53.9735 31.679 56.9564 33.5345C59.9393 35.3666 61.8888 33.605 63.1806 31.2328C64.4724 28.8605 65.9991 27.1929 65.9991 27.1929C65.9991 27.1929 65.2475 33.0648 68.6532 33.0178C72.0588 32.9708 74.1727 28.6022 74.1727 28.6022C73.9378 32.4071 76.1222 32.7125 77.4609 32.4071C78.7997 32.1018 78.8232 30.2933 78.8232 30.2933C79.8332 20.499 84.883 17.8919 84.883 17.8919C88.3591 20.546 80.9371 28.2264 79.5278 29.8C78.1186 31.3737 77.8367 34.4271 80.5143 34.615C83.1684 34.8029 87.1377 26.9346 88.7819 23.7403C90.426 20.546 92.4929 20.593 92.4929 20.593C92.4929 20.593 90.8488 28.062 92.1875 31.8669C93.5263 35.6719 98.1298 35.6249 98.1298 35.6249L98.0124 34.568C95.2644 32.9943 95.969 24.5154 95.969 24.5154ZM60.9728 29.2363C59.6105 27.3104 63.7443 20.9688 64.3785 19.7944C64.8247 18.9489 66.1165 19.8414 66.7742 20.4051C64.5194 24.8677 61.8183 30.4107 60.9728 29.2363Z" fill="#535353"/>
<path d="M134.089 13.6168C134.089 13.6168 131.2 15.5662 129.203 15.6836C128.006 15.7541 126.949 15.026 126.291 14.4623C128.241 8.82532 130.801 6.19473 131.576 5.20826C132.868 3.56414 132.985 3.28229 131.881 1.967C130.777 0.628219 129.368 1.14494 129.368 1.14494C127.912 1.73213 126.385 4.9499 124.835 8.73137C124.201 10.2581 123.567 11.8787 122.909 13.4758C122.627 14.2509 122.322 15.1199 122.04 16.036C121.053 16.5527 119.809 17.0694 118.799 17.1164C117.601 17.1868 116.544 16.4587 115.886 15.895C117.836 10.2581 120.396 7.62746 121.171 6.64099C122.463 4.99688 122.58 4.71503 121.476 3.39973C120.372 2.06095 118.963 2.57767 118.963 2.57767C115.792 3.86948 112.269 17.7036 108.793 22.5185C105.317 27.3334 102.029 27.5213 102.827 22.5185C102.898 22.0957 102.992 21.6494 103.086 21.2267C109.004 21.7199 110.555 15.2844 111.001 13.1C111.471 10.6808 109.404 9.10717 108.3 9.03671C107.196 8.96625 105.646 7.79188 101.888 13.6872C98.1297 19.5826 98.1766 28.907 102.24 29.0715C106.303 29.2359 107.806 27.0515 108.229 26.3939C108.652 25.7362 109.568 25.7597 109.568 25.7597C109.568 25.7597 108.441 31.0444 109.638 33.2757C110.836 35.507 113.702 34.9433 113.702 34.9433C121.5 30.4102 117.319 19.1833 117.319 19.1833C119.151 19.1363 120.396 18.784 121.312 18.3377C120.772 20.2402 120.278 22.2836 119.926 24.3505C119.949 24.3505 119.949 24.3505 119.949 24.3505C119.949 24.3505 119.856 24.7968 119.738 25.4779C119.644 26.1825 119.55 26.8871 119.503 27.5918C119.409 29.1184 119.456 30.8095 120.02 31.843C121.241 34.0743 124.06 33.5106 124.06 33.5106C131.881 28.9775 127.677 17.7505 127.677 17.7505C131.834 17.6331 133.008 15.989 133.831 15.1199C134.723 14.2274 134.089 13.6168 134.089 13.6168ZM107.384 12.9121C108.065 13.1 107.525 16.4587 106.233 17.7036C105.317 18.5726 104.495 18.3847 104.072 18.1968C105.293 15.0965 106.914 12.7947 107.384 12.9121ZM116.098 24.9142C115.816 29.3063 113.537 31.702 113.537 31.702C113.561 27.3804 113.984 23.7633 114.618 20.7099C115.44 21.5555 116.215 22.8708 116.098 24.9142ZM126.455 23.5049C126.174 27.8971 123.895 30.2928 123.895 30.2928C123.919 25.9711 124.342 22.3541 124.976 19.3007C125.821 20.1462 126.596 21.4615 126.455 23.5049Z" fill="#535353"/>
<path d="M145.368 10.112C145.315 10.112 145.269 10.096 145.232 10.064C145.2 10.032 145.184 9.98667 145.184 9.928V8.464C145.184 8.41067 145.2 8.368 145.232 8.336C145.269 8.29867 145.315 8.28 145.368 8.28H145.536C145.664 8.28 145.776 8.22133 145.872 8.104C145.968 7.98667 146.048 7.808 146.112 7.568C146.181 7.32267 146.232 7.01333 146.264 6.64C146.296 6.26667 146.312 5.824 146.312 5.312V3.584C146.312 3.53067 146.328 3.488 146.36 3.456C146.397 3.41867 146.443 3.4 146.496 3.4H149.616C149.675 3.4 149.72 3.41867 149.752 3.456C149.789 3.488 149.808 3.53333 149.808 3.592V8.28H150.2C150.259 8.28 150.304 8.29867 150.336 8.336C150.373 8.368 150.392 8.41067 150.392 8.464V9.928C150.392 9.98133 150.373 10.024 150.336 10.056C150.304 10.0933 150.259 10.112 150.2 10.112H149.792C149.733 10.112 149.688 10.0933 149.656 10.056C149.624 10.024 149.608 9.98133 149.608 9.928V9H145.968V9.928C145.968 9.98133 145.949 10.024 145.912 10.056C145.88 10.0933 145.835 10.112 145.776 10.112H145.368ZM146.56 8.28H149.024V4.12H147.08V5.408C147.08 6.16533 147.035 6.776 146.944 7.24C146.859 7.704 146.731 8.05067 146.56 8.28ZM151.432 9C151.384 9 151.341 8.984 151.304 8.952C151.272 8.91467 151.256 8.87467 151.256 8.832V5.024C151.256 4.97067 151.272 4.928 151.304 4.896C151.341 4.85867 151.387 4.84 151.44 4.84H151.824C151.877 4.84 151.92 4.85867 151.952 4.896C151.984 4.928 152 4.97067 152 5.024V8.416L151.792 8.2L154.216 4.96C154.243 4.928 154.272 4.90133 154.304 4.88C154.336 4.85333 154.376 4.84 154.424 4.84H154.792C154.835 4.84 154.872 4.856 154.904 4.888C154.941 4.92 154.96 4.95733 154.96 5V8.816C154.96 8.86933 154.941 8.91467 154.904 8.952C154.872 8.984 154.829 9 154.776 9H154.4C154.341 9 154.296 8.984 154.264 8.952C154.232 8.91467 154.216 8.86933 154.216 8.816V5.624L154.44 5.616L152 8.88C151.979 8.90667 151.952 8.93333 151.92 8.96C151.888 8.98667 151.845 9 151.792 9H151.432ZM157.579 9.08C157.264 9.08 156.998 9.04267 156.779 8.968C156.566 8.888 156.392 8.78933 156.259 8.672C156.131 8.54933 156.038 8.424 155.979 8.296C155.92 8.16267 155.888 8.04 155.883 7.928C155.883 7.88 155.899 7.84267 155.931 7.816C155.963 7.784 156 7.768 156.043 7.768H156.419C156.467 7.768 156.507 7.78133 156.539 7.808C156.571 7.82933 156.595 7.86933 156.611 7.928C156.675 8.13067 156.798 8.272 156.979 8.352C157.16 8.432 157.382 8.472 157.643 8.472C157.814 8.472 157.971 8.45067 158.115 8.408C158.259 8.36 158.371 8.28533 158.451 8.184C158.536 8.08267 158.579 7.95733 158.579 7.808C158.579 7.58933 158.515 7.424 158.387 7.312C158.264 7.2 158.072 7.144 157.811 7.144H157.371C157.318 7.144 157.275 7.128 157.243 7.096C157.211 7.064 157.195 7.02133 157.195 6.968V6.752C157.195 6.704 157.211 6.664 157.243 6.632C157.275 6.59467 157.318 6.576 157.371 6.576H157.763C157.982 6.576 158.15 6.53333 158.267 6.448C158.384 6.36267 158.443 6.22667 158.443 6.04C158.443 5.928 158.416 5.82133 158.363 5.72C158.31 5.61867 158.219 5.536 158.091 5.472C157.968 5.40267 157.798 5.368 157.579 5.368C157.27 5.368 157.051 5.42133 156.923 5.528C156.8 5.62933 156.712 5.78133 156.659 5.984C156.638 6.04267 156.611 6.08267 156.579 6.104C156.552 6.12533 156.512 6.136 156.459 6.136H156.099C156.051 6.136 156.011 6.12267 155.979 6.096C155.947 6.06933 155.931 6.032 155.931 5.984C155.936 5.824 155.971 5.672 156.035 5.528C156.104 5.384 156.206 5.25333 156.339 5.136C156.478 5.01867 156.648 4.928 156.851 4.864C157.059 4.79467 157.302 4.76 157.579 4.76C157.979 4.76 158.294 4.82133 158.523 4.944C158.758 5.06667 158.923 5.21867 159.019 5.4C159.12 5.576 159.171 5.752 159.171 5.928C159.171 6.136 159.136 6.30933 159.067 6.448C159.003 6.58667 158.875 6.704 158.683 6.8C158.923 6.89067 159.088 7.02667 159.179 7.208C159.27 7.38933 159.318 7.6 159.323 7.84C159.328 8.11733 159.254 8.34667 159.099 8.528C158.95 8.70933 158.744 8.848 158.483 8.944C158.222 9.03467 157.92 9.08 157.579 9.08ZM161.385 9.08C161.118 9.08 160.875 9.02667 160.657 8.92C160.438 8.81333 160.262 8.66933 160.129 8.488C159.995 8.30667 159.929 8.10133 159.929 7.872C159.929 7.504 160.078 7.21067 160.377 6.992C160.675 6.77333 161.065 6.62933 161.545 6.56L162.737 6.392V6.16C162.737 5.904 162.662 5.704 162.513 5.56C162.369 5.416 162.131 5.344 161.801 5.344C161.561 5.344 161.366 5.392 161.217 5.488C161.073 5.584 160.971 5.70667 160.913 5.856C160.881 5.936 160.825 5.976 160.745 5.976H160.385C160.326 5.976 160.281 5.96 160.249 5.928C160.222 5.89067 160.209 5.848 160.209 5.8C160.209 5.72 160.238 5.62133 160.297 5.504C160.361 5.38667 160.457 5.272 160.585 5.16C160.713 5.048 160.875 4.95467 161.073 4.88C161.275 4.8 161.521 4.76 161.809 4.76C162.129 4.76 162.398 4.80267 162.617 4.888C162.835 4.968 163.006 5.07733 163.129 5.216C163.257 5.35467 163.347 5.512 163.401 5.688C163.459 5.864 163.489 6.04267 163.489 6.224V8.816C163.489 8.86933 163.47 8.91467 163.433 8.952C163.401 8.984 163.358 9 163.305 9H162.937C162.878 9 162.833 8.984 162.801 8.952C162.769 8.91467 162.753 8.86933 162.753 8.816V8.472C162.683 8.568 162.59 8.664 162.473 8.76C162.355 8.85067 162.209 8.928 162.033 8.992C161.857 9.05067 161.641 9.08 161.385 9.08ZM161.553 8.48C161.771 8.48 161.971 8.43467 162.153 8.344C162.334 8.248 162.475 8.10133 162.577 7.904C162.683 7.70667 162.737 7.45867 162.737 7.16V6.936L161.809 7.072C161.43 7.12533 161.145 7.216 160.953 7.344C160.761 7.46667 160.665 7.624 160.665 7.816C160.665 7.96533 160.707 8.09067 160.793 8.192C160.883 8.288 160.995 8.36 161.129 8.408C161.267 8.456 161.409 8.48 161.553 8.48ZM164.815 9C164.767 9 164.724 8.984 164.687 8.952C164.655 8.91467 164.639 8.87467 164.639 8.832V5.024C164.639 4.97067 164.655 4.928 164.687 4.896C164.724 4.85867 164.77 4.84 164.823 4.84H165.207C165.26 4.84 165.303 4.85867 165.335 4.896C165.367 4.928 165.383 4.97067 165.383 5.024V8.416L165.175 8.2L167.599 4.96C167.626 4.928 167.655 4.90133 167.687 4.88C167.719 4.85333 167.759 4.84 167.807 4.84H168.175C168.218 4.84 168.255 4.856 168.287 4.888C168.324 4.92 168.343 4.95733 168.343 5V8.816C168.343 8.86933 168.324 8.91467 168.287 8.952C168.255 8.984 168.212 9 168.159 9H167.783C167.724 9 167.679 8.984 167.647 8.952C167.615 8.91467 167.599 8.86933 167.599 8.816V5.624L167.823 5.616L165.383 8.88C165.362 8.90667 165.335 8.93333 165.303 8.96C165.271 8.98667 165.228 9 165.175 9H164.815ZM166.511 4.288C166.202 4.288 165.959 4.24 165.783 4.144C165.607 4.048 165.484 3.92533 165.415 3.776C165.346 3.62133 165.311 3.46133 165.311 3.296C165.311 3.25333 165.322 3.21867 165.343 3.192C165.37 3.16 165.41 3.144 165.463 3.144H165.735C165.783 3.144 165.82 3.16 165.847 3.192C165.874 3.21867 165.887 3.25333 165.887 3.296C165.887 3.41867 165.927 3.53333 166.007 3.64C166.092 3.74133 166.26 3.792 166.511 3.792C166.767 3.792 166.935 3.74133 167.015 3.64C167.095 3.53333 167.135 3.41867 167.135 3.296C167.135 3.25333 167.148 3.21867 167.175 3.192C167.202 3.16 167.239 3.144 167.287 3.144H167.567C167.615 3.144 167.652 3.16 167.679 3.192C167.706 3.21867 167.719 3.25333 167.719 3.296C167.719 3.46133 167.682 3.62133 167.607 3.776C167.538 3.92533 167.415 4.048 167.239 4.144C167.063 4.24 166.82 4.288 166.511 4.288ZM169.698 9C169.645 9 169.599 8.984 169.562 8.952C169.53 8.91467 169.514 8.86933 169.514 8.816V5.024C169.514 4.97067 169.53 4.928 169.562 4.896C169.599 4.85867 169.645 4.84 169.698 4.84H170.082C170.135 4.84 170.178 4.85867 170.21 4.896C170.242 4.928 170.258 4.97067 170.258 5.024V6.56H172.442V5.024C172.442 4.97067 172.458 4.928 172.49 4.896C172.527 4.85867 172.573 4.84 172.626 4.84H173.002C173.055 4.84 173.098 4.85867 173.13 4.896C173.167 4.928 173.186 4.97067 173.186 5.024V8.816C173.186 8.86933 173.167 8.91467 173.13 8.952C173.098 8.984 173.055 9 173.002 9H172.626C172.573 9 172.527 8.984 172.49 8.952C172.458 8.91467 172.442 8.86933 172.442 8.816V7.2H170.258V8.816C170.258 8.86933 170.242 8.91467 170.21 8.952C170.178 8.984 170.135 9 170.082 9H169.698ZM145.88 21C145.827 21 145.781 20.984 145.744 20.952C145.712 20.9147 145.696 20.8693 145.696 20.816V15.592C145.696 15.5333 145.712 15.488 145.744 15.456C145.781 15.4187 145.827 15.4 145.88 15.4H146.28C146.344 15.4 146.392 15.416 146.424 15.448C146.456 15.48 146.475 15.5067 146.48 15.528L148.176 18.76L149.88 15.528C149.891 15.5067 149.909 15.48 149.936 15.448C149.968 15.416 150.016 15.4 150.08 15.4H150.472C150.531 15.4 150.576 15.4187 150.608 15.456C150.645 15.488 150.664 15.5333 150.664 15.592V20.816C150.664 20.8693 150.645 20.9147 150.608 20.952C150.576 20.984 150.531 21 150.472 21H150.08C150.027 21 149.981 20.984 149.944 20.952C149.912 20.9147 149.896 20.8693 149.896 20.816V16.88L148.56 19.488C148.539 19.5413 148.507 19.584 148.464 19.616C148.421 19.6427 148.368 19.656 148.304 19.656H148.056C147.987 19.656 147.931 19.6427 147.888 19.616C147.851 19.584 147.819 19.5413 147.792 19.488L146.456 16.88V20.816C146.456 20.8693 146.437 20.9147 146.4 20.952C146.368 20.984 146.325 21 146.272 21H145.88ZM153.104 21.08C152.837 21.08 152.594 21.0267 152.376 20.92C152.157 20.8133 151.981 20.6693 151.848 20.488C151.714 20.3067 151.648 20.1013 151.648 19.872C151.648 19.504 151.797 19.2107 152.096 18.992C152.394 18.7733 152.784 18.6293 153.264 18.56L154.456 18.392V18.16C154.456 17.904 154.381 17.704 154.232 17.56C154.088 17.416 153.85 17.344 153.52 17.344C153.28 17.344 153.085 17.392 152.936 17.488C152.792 17.584 152.69 17.7067 152.632 17.856C152.6 17.936 152.544 17.976 152.464 17.976H152.104C152.045 17.976 152 17.96 151.968 17.928C151.941 17.8907 151.928 17.848 151.928 17.8C151.928 17.72 151.957 17.6213 152.016 17.504C152.08 17.3867 152.176 17.272 152.304 17.16C152.432 17.048 152.594 16.9547 152.792 16.88C152.994 16.8 153.24 16.76 153.528 16.76C153.848 16.76 154.117 16.8027 154.336 16.888C154.554 16.968 154.725 17.0773 154.848 17.216C154.976 17.3547 155.066 17.512 155.12 17.688C155.178 17.864 155.208 18.0427 155.208 18.224V20.816C155.208 20.8693 155.189 20.9147 155.152 20.952C155.12 20.984 155.077 21 155.024 21H154.656C154.597 21 154.552 20.984 154.52 20.952C154.488 20.9147 154.472 20.8693 154.472 20.816V20.472C154.402 20.568 154.309 20.664 154.192 20.76C154.074 20.8507 153.928 20.928 153.752 20.992C153.576 21.0507 153.36 21.08 153.104 21.08ZM153.272 20.48C153.49 20.48 153.69 20.4347 153.872 20.344C154.053 20.248 154.194 20.1013 154.296 19.904C154.402 19.7067 154.456 19.4587 154.456 19.16V18.936L153.528 19.072C153.149 19.1253 152.864 19.216 152.672 19.344C152.48 19.4667 152.384 19.624 152.384 19.816C152.384 19.9653 152.426 20.0907 152.512 20.192C152.602 20.288 152.714 20.36 152.848 20.408C152.986 20.456 153.128 20.48 153.272 20.48ZM156.55 22.52C156.496 22.52 156.451 22.5013 156.414 22.464C156.382 22.432 156.366 22.3893 156.366 22.336V17.024C156.366 16.9707 156.382 16.928 156.414 16.896C156.451 16.8587 156.496 16.84 156.55 16.84H156.918C156.971 16.84 157.014 16.8587 157.046 16.896C157.083 16.928 157.102 16.9707 157.102 17.024V17.376C157.23 17.2 157.4 17.0533 157.614 16.936C157.827 16.8187 158.094 16.76 158.414 16.76C158.712 16.76 158.966 16.8107 159.174 16.912C159.387 17.0133 159.56 17.152 159.694 17.328C159.832 17.504 159.936 17.704 160.006 17.928C160.075 18.152 160.112 18.392 160.118 18.648C160.123 18.7333 160.126 18.824 160.126 18.92C160.126 19.016 160.123 19.1067 160.118 19.192C160.112 19.4427 160.075 19.6827 160.006 19.912C159.936 20.136 159.832 20.336 159.694 20.512C159.56 20.6827 159.387 20.8213 159.174 20.928C158.966 21.0293 158.712 21.08 158.414 21.08C158.104 21.08 157.843 21.024 157.63 20.912C157.422 20.7947 157.251 20.6507 157.118 20.48V22.336C157.118 22.3893 157.102 22.432 157.07 22.464C157.038 22.5013 156.992 22.52 156.934 22.52H156.55ZM158.246 20.432C158.523 20.432 158.739 20.3733 158.894 20.256C159.054 20.1333 159.168 19.976 159.238 19.784C159.307 19.5867 159.347 19.376 159.358 19.152C159.363 18.9973 159.363 18.8427 159.358 18.688C159.347 18.464 159.307 18.256 159.238 18.064C159.168 17.8667 159.054 17.7093 158.894 17.592C158.739 17.4693 158.523 17.408 158.246 17.408C157.984 17.408 157.771 17.4693 157.606 17.592C157.446 17.7147 157.326 17.872 157.246 18.064C157.171 18.2507 157.128 18.4427 157.118 18.64C157.112 18.7253 157.11 18.8267 157.11 18.944C157.11 19.0613 157.112 19.1653 157.118 19.256C157.123 19.4427 157.166 19.6267 157.246 19.808C157.331 19.9893 157.456 20.1387 157.622 20.256C157.787 20.3733 157.995 20.432 158.246 20.432ZM161.307 21C161.254 21 161.209 20.984 161.171 20.952C161.139 20.9147 161.123 20.8693 161.123 20.816V17.024C161.123 16.9707 161.139 16.928 161.171 16.896C161.209 16.8587 161.254 16.84 161.307 16.84H161.683C161.737 16.84 161.779 16.8587 161.811 16.896C161.849 16.928 161.867 16.9707 161.867 17.024V18.56H162.595L163.675 16.96C163.702 16.9227 163.731 16.8933 163.763 16.872C163.795 16.8507 163.838 16.84 163.891 16.84H164.307C164.355 16.84 164.395 16.8507 164.427 16.872C164.459 16.8933 164.475 16.9253 164.475 16.968C164.475 16.9787 164.47 16.9947 164.459 17.016C164.454 17.032 164.446 17.048 164.435 17.064L163.235 18.832L164.595 20.768C164.622 20.8 164.635 20.8347 164.635 20.872C164.635 20.9147 164.619 20.9467 164.587 20.968C164.561 20.9893 164.523 21 164.475 21H163.987C163.939 21 163.899 20.9893 163.867 20.968C163.835 20.9467 163.806 20.9173 163.779 20.88L162.603 19.208H161.867V20.816C161.867 20.8693 161.849 20.9147 161.811 20.952C161.779 20.984 161.737 21 161.683 21H161.307ZM166.873 21.08C166.324 21.08 165.886 20.912 165.561 20.576C165.236 20.2347 165.057 19.7707 165.025 19.184C165.02 19.1147 165.017 19.0267 165.017 18.92C165.017 18.808 165.02 18.7173 165.025 18.648C165.046 18.2693 165.134 17.9387 165.289 17.656C165.444 17.368 165.654 17.1467 165.921 16.992C166.193 16.8373 166.51 16.76 166.873 16.76C167.278 16.76 167.617 16.8453 167.889 17.016C168.166 17.1867 168.377 17.4293 168.521 17.744C168.665 18.0587 168.737 18.4267 168.737 18.848V18.984C168.737 19.0427 168.718 19.088 168.681 19.12C168.649 19.152 168.606 19.168 168.553 19.168H165.785C165.785 19.1733 165.785 19.184 165.785 19.2C165.785 19.216 165.785 19.2293 165.785 19.24C165.796 19.4587 165.844 19.664 165.929 19.856C166.014 20.0427 166.137 20.1947 166.297 20.312C166.457 20.4293 166.649 20.488 166.873 20.488C167.065 20.488 167.225 20.4587 167.353 20.4C167.481 20.3413 167.585 20.2773 167.665 20.208C167.745 20.1333 167.798 20.0773 167.825 20.04C167.873 19.9707 167.91 19.9307 167.937 19.92C167.964 19.904 168.006 19.896 168.065 19.896H168.449C168.502 19.896 168.545 19.912 168.577 19.944C168.614 19.9707 168.63 20.0107 168.625 20.064C168.62 20.144 168.577 20.2427 168.497 20.36C168.417 20.472 168.302 20.584 168.153 20.696C168.004 20.808 167.822 20.9013 167.609 20.976C167.396 21.0453 167.15 21.08 166.873 21.08ZM165.785 18.616H167.977V18.592C167.977 18.352 167.932 18.1387 167.841 17.952C167.756 17.7653 167.63 17.6187 167.465 17.512C167.3 17.4 167.102 17.344 166.873 17.344C166.644 17.344 166.446 17.4 166.281 17.512C166.121 17.6187 165.998 17.7653 165.913 17.952C165.828 18.1387 165.785 18.352 165.785 18.592V18.616ZM170.966 21C170.912 21 170.867 20.984 170.83 20.952C170.798 20.9147 170.782 20.8693 170.782 20.816V17.48H169.39C169.336 17.48 169.291 17.464 169.254 17.432C169.222 17.3947 169.206 17.3493 169.206 17.296V17.024C169.206 16.9707 169.222 16.928 169.254 16.896C169.291 16.8587 169.336 16.84 169.39 16.84H172.91C172.963 16.84 173.006 16.8587 173.038 16.896C173.075 16.928 173.094 16.9707 173.094 17.024V17.296C173.094 17.3493 173.075 17.3947 173.038 17.432C173.006 17.464 172.963 17.48 172.91 17.48H171.518V20.816C171.518 20.8693 171.502 20.9147 171.47 20.952C171.438 20.984 171.392 21 171.334 21H170.966ZM173.963 21C173.915 21 173.873 20.984 173.835 20.952C173.803 20.9147 173.787 20.8747 173.787 20.832V17.024C173.787 16.9707 173.803 16.928 173.835 16.896C173.873 16.8587 173.918 16.84 173.971 16.84H174.355C174.409 16.84 174.451 16.8587 174.483 16.896C174.515 16.928 174.531 16.9707 174.531 17.024V20.416L174.323 20.2L176.747 16.96C176.774 16.928 176.803 16.9013 176.835 16.88C176.867 16.8533 176.907 16.84 176.955 16.84H177.323C177.366 16.84 177.403 16.856 177.435 16.888C177.473 16.92 177.491 16.9573 177.491 17V20.816C177.491 20.8693 177.473 20.9147 177.435 20.952C177.403 20.984 177.361 21 177.307 21H176.931C176.873 21 176.827 20.984 176.795 20.952C176.763 20.9147 176.747 20.8693 176.747 20.816V17.624L176.971 17.616L174.531 20.88C174.51 20.9067 174.483 20.9333 174.451 20.96C174.419 20.9867 174.377 21 174.323 21H173.963ZM178.846 21C178.793 21 178.748 20.984 178.71 20.952C178.678 20.9147 178.662 20.8693 178.662 20.816V17.024C178.662 16.9707 178.678 16.928 178.71 16.896C178.748 16.8587 178.793 16.84 178.846 16.84H179.23C179.284 16.84 179.326 16.8587 179.358 16.896C179.39 16.928 179.406 16.9707 179.406 17.024V18.56H181.59V17.024C181.59 16.9707 181.606 16.928 181.638 16.896C181.676 16.8587 181.721 16.84 181.774 16.84H182.15C182.204 16.84 182.246 16.8587 182.278 16.896C182.316 16.928 182.334 16.9707 182.334 17.024V20.816C182.334 20.8693 182.316 20.9147 182.278 20.952C182.246 20.984 182.204 21 182.15 21H181.774C181.721 21 181.676 20.984 181.638 20.952C181.606 20.9147 181.59 20.8693 181.59 20.816V19.2H179.406V20.816C179.406 20.8693 179.39 20.9147 179.358 20.952C179.326 20.984 179.284 21 179.23 21H178.846ZM183.721 21C183.668 21 183.623 20.984 183.585 20.952C183.553 20.9147 183.537 20.8693 183.537 20.816V17.024C183.537 16.9707 183.553 16.928 183.585 16.896C183.623 16.8587 183.668 16.84 183.721 16.84H186.113C186.167 16.84 186.209 16.8587 186.241 16.896C186.273 16.928 186.289 16.9707 186.289 17.024V17.296C186.289 17.3493 186.273 17.3947 186.241 17.432C186.209 17.464 186.167 17.48 186.113 17.48H184.281V20.816C184.281 20.8693 184.265 20.9147 184.233 20.952C184.201 20.984 184.159 21 184.105 21H183.721ZM145.88 33C145.821 33 145.776 32.984 145.744 32.952C145.712 32.9147 145.696 32.8693 145.696 32.816V27.592C145.696 27.5333 145.712 27.488 145.744 27.456C145.776 27.4187 145.821 27.4 145.88 27.4H146.288C146.347 27.4 146.392 27.4187 146.424 27.456C146.461 27.488 146.48 27.5333 146.48 27.592V29.8H147.384L148.808 27.528C148.835 27.4853 148.869 27.4533 148.912 27.432C148.955 27.4107 149.011 27.4 149.08 27.4H149.512C149.571 27.4 149.613 27.416 149.64 27.448C149.667 27.48 149.68 27.5173 149.68 27.56C149.68 27.592 149.667 27.6267 149.64 27.664L148.104 30.112L149.792 32.72C149.808 32.7413 149.816 32.7707 149.816 32.808C149.816 32.8613 149.797 32.9067 149.76 32.944C149.728 32.9813 149.685 33 149.632 33H149.176C149.117 33 149.072 32.9893 149.04 32.968C149.013 32.9413 148.989 32.912 148.968 32.88L147.416 30.52H146.48V32.816C146.48 32.8693 146.461 32.9147 146.424 32.952C146.392 32.984 146.347 33 146.288 33H145.88ZM152.171 33.08C151.766 33.08 151.427 33.0027 151.155 32.848C150.883 32.6933 150.675 32.48 150.531 32.208C150.387 31.9307 150.307 31.616 150.291 31.264C150.286 31.1733 150.283 31.0587 150.283 30.92C150.283 30.776 150.286 30.6613 150.291 30.576C150.307 30.2187 150.387 29.904 150.531 29.632C150.68 29.36 150.891 29.1467 151.163 28.992C151.435 28.8373 151.771 28.76 152.171 28.76C152.571 28.76 152.907 28.8373 153.179 28.992C153.451 29.1467 153.659 29.36 153.803 29.632C153.952 29.904 154.035 30.2187 154.051 30.576C154.056 30.6613 154.059 30.776 154.059 30.92C154.059 31.0587 154.056 31.1733 154.051 31.264C154.035 31.616 153.955 31.9307 153.811 32.208C153.667 32.48 153.459 32.6933 153.187 32.848C152.915 33.0027 152.576 33.08 152.171 33.08ZM152.171 32.464C152.502 32.464 152.766 32.36 152.963 32.152C153.16 31.9387 153.267 31.6293 153.283 31.224C153.288 31.144 153.291 31.0427 153.291 30.92C153.291 30.7973 153.288 30.696 153.283 30.616C153.267 30.2107 153.16 29.904 152.963 29.696C152.766 29.4827 152.502 29.376 152.171 29.376C151.84 29.376 151.574 29.4827 151.371 29.696C151.174 29.904 151.07 30.2107 151.059 30.616C151.054 30.696 151.051 30.7973 151.051 30.92C151.051 31.0427 151.054 31.144 151.059 31.224C151.07 31.6293 151.174 31.9387 151.371 32.152C151.574 32.36 151.84 32.464 152.171 32.464ZM155.245 33C155.191 33 155.146 32.984 155.109 32.952C155.077 32.9147 155.061 32.8693 155.061 32.816V29.024C155.061 28.9707 155.077 28.928 155.109 28.896C155.146 28.8587 155.191 28.84 155.245 28.84H155.629C155.682 28.84 155.725 28.8587 155.757 28.896C155.789 28.928 155.805 28.9707 155.805 29.024V30.56H157.989V29.024C157.989 28.9707 158.005 28.928 158.037 28.896C158.074 28.8587 158.119 28.84 158.173 28.84H158.549C158.602 28.84 158.645 28.8587 158.677 28.896C158.714 28.928 158.733 28.9707 158.733 29.024V32.816C158.733 32.8693 158.714 32.9147 158.677 32.952C158.645 32.984 158.602 33 158.549 33H158.173C158.119 33 158.074 32.984 158.037 32.952C158.005 32.9147 157.989 32.8693 157.989 32.816V31.2H155.805V32.816C155.805 32.8693 155.789 32.9147 155.757 32.952C155.725 32.984 155.682 33 155.629 33H155.245ZM161.208 33C161.154 33 161.109 32.984 161.072 32.952C161.04 32.9147 161.024 32.8693 161.024 32.816V29.48H159.632C159.578 29.48 159.533 29.464 159.496 29.432C159.464 29.3947 159.448 29.3493 159.448 29.296V29.024C159.448 28.9707 159.464 28.928 159.496 28.896C159.533 28.8587 159.578 28.84 159.632 28.84H163.152C163.205 28.84 163.248 28.8587 163.28 28.896C163.317 28.928 163.336 28.9707 163.336 29.024V29.296C163.336 29.3493 163.317 29.3947 163.28 29.432C163.248 29.464 163.205 29.48 163.152 29.48H161.76V32.816C161.76 32.8693 161.744 32.9147 161.712 32.952C161.68 32.984 161.634 33 161.576 33H161.208ZM165.686 33.08C165.136 33.08 164.699 32.912 164.374 32.576C164.048 32.2347 163.87 31.7707 163.838 31.184C163.832 31.1147 163.83 31.0267 163.83 30.92C163.83 30.808 163.832 30.7173 163.838 30.648C163.859 30.2693 163.947 29.9387 164.102 29.656C164.256 29.368 164.467 29.1467 164.734 28.992C165.006 28.8373 165.323 28.76 165.686 28.76C166.091 28.76 166.43 28.8453 166.702 29.016C166.979 29.1867 167.19 29.4293 167.334 29.744C167.478 30.0587 167.549 30.4267 167.549 30.848V30.984C167.549 31.0427 167.531 31.088 167.494 31.12C167.462 31.152 167.419 31.168 167.366 31.168H164.598C164.598 31.1733 164.598 31.184 164.598 31.2C164.598 31.216 164.598 31.2293 164.598 31.24C164.608 31.4587 164.656 31.664 164.742 31.856C164.827 32.0427 164.95 32.1947 165.11 32.312C165.27 32.4293 165.462 32.488 165.686 32.488C165.878 32.488 166.038 32.4587 166.166 32.4C166.294 32.3413 166.398 32.2773 166.478 32.208C166.558 32.1333 166.611 32.0773 166.638 32.04C166.686 31.9707 166.723 31.9307 166.75 31.92C166.776 31.904 166.819 31.896 166.878 31.896H167.262C167.315 31.896 167.358 31.912 167.39 31.944C167.427 31.9707 167.443 32.0107 167.438 32.064C167.432 32.144 167.39 32.2427 167.31 32.36C167.23 32.472 167.115 32.584 166.966 32.696C166.816 32.808 166.635 32.9013 166.422 32.976C166.208 33.0453 165.963 33.08 165.686 33.08ZM164.598 30.616H166.79V30.592C166.79 30.352 166.744 30.1387 166.654 29.952C166.568 29.7653 166.443 29.6187 166.278 29.512C166.112 29.4 165.915 29.344 165.686 29.344C165.456 29.344 165.259 29.4 165.094 29.512C164.934 29.6187 164.811 29.7653 164.726 29.952C164.64 30.1387 164.598 30.352 164.598 30.592V30.616ZM168.69 33C168.637 33 168.591 32.984 168.554 32.952C168.522 32.9147 168.506 32.8693 168.506 32.816V29.024C168.506 28.9707 168.522 28.928 168.554 28.896C168.591 28.8587 168.637 28.84 168.69 28.84H169.074C169.127 28.84 169.17 28.8587 169.202 28.896C169.234 28.928 169.25 28.9707 169.25 29.024V30.56H171.434V29.024C171.434 28.9707 171.45 28.928 171.482 28.896C171.519 28.8587 171.565 28.84 171.618 28.84H171.994C172.047 28.84 172.09 28.8587 172.122 28.896C172.159 28.928 172.178 28.9707 172.178 29.024V32.816C172.178 32.8693 172.159 32.9147 172.122 32.952C172.09 32.984 172.047 33 171.994 33H171.618C171.565 33 171.519 32.984 171.482 32.952C171.45 32.9147 171.434 32.8693 171.434 32.816V31.2H169.25V32.816C169.25 32.8693 169.234 32.9147 169.202 32.952C169.17 32.984 169.127 33 169.074 33H168.69ZM174.653 33C174.6 33 174.554 32.984 174.517 32.952C174.485 32.9147 174.469 32.8693 174.469 32.816V29.48H173.077C173.024 29.48 172.978 29.464 172.941 29.432C172.909 29.3947 172.893 29.3493 172.893 29.296V29.024C172.893 28.9707 172.909 28.928 172.941 28.896C172.978 28.8587 173.024 28.84 173.077 28.84H176.597C176.65 28.84 176.693 28.8587 176.725 28.896C176.762 28.928 176.781 28.9707 176.781 29.024V29.296C176.781 29.3493 176.762 29.3947 176.725 29.432C176.693 29.464 176.65 29.48 176.597 29.48H175.205V32.816C175.205 32.8693 175.189 32.9147 175.157 32.952C175.125 32.984 175.08 33 175.021 33H174.653Z" fill="#424242"/>
</svg>
