<svg width="181" height="21" viewBox="0 0 181 21" fill="none" xmlns="http://www.w3.org/2000/svg">
<path d="M8.20417 20.7478C6.41217 20.7478 4.90951 20.4864 3.69617 19.9638C2.50151 19.4411 1.59617 18.7598 0.980172 17.9198C0.364172 17.0798 0.0375052 16.1838 0.00017187 15.2318C0.00017187 15.0824 0.0561719 14.9518 0.168172 14.8398C0.280172 14.7091 0.420172 14.6438 0.588172 14.6438H3.58417C3.82684 14.6438 4.01351 14.6998 4.14417 14.8118C4.27484 14.9051 4.39617 15.0264 4.50817 15.1758C4.63884 15.4931 4.84417 15.8011 5.12417 16.0998C5.42284 16.3984 5.82417 16.6504 6.32817 16.8558C6.83217 17.0424 7.45751 17.1358 8.20417 17.1358C9.41751 17.1358 10.3228 16.9398 10.9202 16.5478C11.5362 16.1558 11.8442 15.6238 11.8442 14.9518C11.8442 14.4664 11.6762 14.0744 11.3402 13.7758C11.0228 13.4771 10.5095 13.2064 9.80017 12.9638C9.10951 12.7211 8.18551 12.4598 7.02817 12.1798C5.62817 11.8811 4.43351 11.4984 3.44417 11.0318C2.47351 10.5464 1.73617 9.93044 1.23217 9.18377C0.746839 8.41844 0.504172 7.47577 0.504172 6.35577C0.504172 5.23577 0.812172 4.24644 1.42817 3.38777C2.04417 2.51044 2.91217 1.82911 4.03217 1.34377C5.15217 0.839772 6.48684 0.587772 8.03617 0.587772C9.28684 0.587772 10.3882 0.755772 11.3402 1.09177C12.3108 1.42777 13.1135 1.86644 13.7482 2.40777C14.4015 2.94911 14.8962 3.52777 15.2322 4.14377C15.5682 4.75977 15.7455 5.35711 15.7642 5.93577C15.7642 6.08511 15.7082 6.22511 15.5962 6.35577C15.4842 6.46777 15.3442 6.52377 15.1762 6.52377H12.0402C11.8535 6.52377 11.6855 6.48644 11.5362 6.41177C11.3868 6.33711 11.2655 6.20644 11.1722 6.01977C11.0602 5.53444 10.7242 5.11444 10.1642 4.75977C9.62284 4.38644 8.91351 4.19977 8.03617 4.19977C7.12151 4.19977 6.39351 4.36777 5.85217 4.70377C5.32951 5.03977 5.06817 5.55311 5.06817 6.24377C5.06817 6.69177 5.19884 7.07444 5.46017 7.39177C5.74017 7.69044 6.19751 7.96111 6.83217 8.20377C7.48551 8.42777 8.34417 8.67977 9.40817 8.95977C11.0508 9.29577 12.3855 9.69711 13.4122 10.1638C14.4388 10.6304 15.1948 11.2371 15.6802 11.9838C16.1655 12.7118 16.4082 13.6358 16.4082 14.7558C16.4082 16.0064 16.0535 17.0798 15.3442 17.9758C14.6535 18.8718 13.6922 19.5624 12.4602 20.0478C11.2468 20.5144 9.82817 20.7478 8.20417 20.7478ZM19.8058 20.4678C19.6005 20.4678 19.4325 20.4024 19.3018 20.2718C19.1711 20.1411 19.1058 19.9731 19.1058 19.7678V1.28777C19.1058 1.08244 19.1711 0.914439 19.3018 0.783773C19.4325 0.653106 19.6005 0.587772 19.8058 0.587772H22.8298C23.0165 0.587772 23.1751 0.653106 23.3058 0.783773C23.4365 0.914439 23.5018 1.08244 23.5018 1.28777V7.58777C24.0058 6.99044 24.6218 6.51444 25.3498 6.15977C26.0778 5.80511 26.9551 5.62777 27.9818 5.62777C29.0831 5.62777 30.0538 5.87977 30.8938 6.38377C31.7525 6.86911 32.4245 7.58777 32.9098 8.53977C33.3951 9.47311 33.6378 10.6118 33.6378 11.9558V19.7678C33.6378 19.9731 33.5725 20.1411 33.4418 20.2718C33.3111 20.4024 33.1431 20.4678 32.9378 20.4678H29.8858C29.6991 20.4678 29.5405 20.4024 29.4098 20.2718C29.2791 20.1411 29.2138 19.9731 29.2138 19.7678V12.1238C29.2138 11.1344 28.9711 10.3691 28.4858 9.82777C28.0005 9.26777 27.3098 8.98777 26.4138 8.98777C25.5365 8.98777 24.8271 9.26777 24.2858 9.82777C23.7631 10.3691 23.5018 11.1344 23.5018 12.1238V19.7678C23.5018 19.9731 23.4365 20.1411 23.3058 20.2718C23.1751 20.4024 23.0165 20.4678 22.8298 20.4678H19.8058ZM43.4846 20.7478C41.3379 20.7478 39.6299 20.1504 38.3606 18.9558C37.1099 17.7611 36.4473 16.0251 36.3726 13.7478C36.3726 13.5984 36.3726 13.4024 36.3726 13.1598C36.3726 12.8984 36.3726 12.6931 36.3726 12.5438C36.4473 11.1064 36.7739 9.87444 37.3526 8.84777C37.9313 7.80244 38.7433 7.00911 39.7886 6.46777C40.8339 5.90777 42.0566 5.62777 43.4566 5.62777C45.0246 5.62777 46.3313 5.95444 47.3766 6.60777C48.4406 7.24244 49.2339 8.11977 49.7566 9.23977C50.2979 10.3411 50.5686 11.6104 50.5686 13.0478V13.6918C50.5686 13.8784 50.4939 14.0371 50.3446 14.1678C50.2139 14.2984 50.0553 14.3638 49.8686 14.3638H40.7126C40.7126 14.3824 40.7126 14.4198 40.7126 14.4758C40.7126 14.5131 40.7126 14.5504 40.7126 14.5878C40.7313 15.1851 40.8433 15.7358 41.0486 16.2398C41.2726 16.7251 41.5806 17.1171 41.9726 17.4158C42.3833 17.7144 42.8686 17.8638 43.4286 17.8638C43.8953 17.8638 44.2779 17.7984 44.5766 17.6678C44.8753 17.5371 45.1179 17.3784 45.3046 17.1918C45.5099 17.0051 45.6593 16.8464 45.7526 16.7158C45.9206 16.5291 46.0513 16.4171 46.1446 16.3798C46.2566 16.3238 46.4246 16.2958 46.6486 16.2958H49.5606C49.7473 16.2958 49.8966 16.3518 50.0086 16.4638C50.1393 16.5571 50.1953 16.6971 50.1766 16.8838C50.1579 17.1824 49.9993 17.5558 49.7006 18.0038C49.4206 18.4331 49.0006 18.8624 48.4406 19.2918C47.8806 19.7024 47.1806 20.0478 46.3406 20.3278C45.5193 20.6078 44.5673 20.7478 43.4846 20.7478ZM40.7126 11.8158H46.2006V11.7598C46.2006 11.0878 46.0886 10.5091 45.8646 10.0238C45.6593 9.51977 45.3513 9.12777 44.9406 8.84777C44.5299 8.56777 44.0353 8.42777 43.4566 8.42777C42.8779 8.42777 42.3833 8.56777 41.9726 8.84777C41.5619 9.12777 41.2446 9.51977 41.0206 10.0238C40.8153 10.5091 40.7126 11.0878 40.7126 11.7598V11.8158ZM54.0675 20.4678C53.8622 20.4678 53.6942 20.4024 53.5635 20.2718C53.4328 20.1411 53.3675 19.9731 53.3675 19.7678V1.28777C53.3675 1.08244 53.4328 0.914439 53.5635 0.783773C53.6942 0.653106 53.8622 0.587772 54.0675 0.587772H56.8675C57.0542 0.587772 57.2128 0.653106 57.3435 0.783773C57.4742 0.914439 57.5395 1.08244 57.5395 1.28777V19.7678C57.5395 19.9731 57.4742 20.1411 57.3435 20.2718C57.2128 20.4024 57.0542 20.4678 56.8675 20.4678H54.0675ZM61.7505 20.4678C61.5638 20.4678 61.4051 20.4024 61.2745 20.2718C61.1438 20.1411 61.0785 19.9731 61.0785 19.7678V6.60777C61.0785 6.40244 61.1438 6.23444 61.2745 6.10377C61.4051 5.97311 61.5638 5.90777 61.7505 5.90777H64.5505C64.7558 5.90777 64.9238 5.97311 65.0545 6.10377C65.1851 6.23444 65.2505 6.40244 65.2505 6.60777V19.7678C65.2505 19.9731 65.1851 20.1411 65.0545 20.2718C64.9238 20.4024 64.7558 20.4678 64.5505 20.4678H61.7505ZM61.6665 3.66777C61.4798 3.66777 61.3211 3.60244 61.1905 3.47177C61.0598 3.34111 60.9945 3.17311 60.9945 2.96777V0.727772C60.9945 0.522439 61.0598 0.354439 61.1905 0.223772C61.3211 0.0744395 61.4798 -0.000226736 61.6665 -0.000226736H64.6065C64.8118 -0.000226736 64.9798 0.0744395 65.1105 0.223772C65.2598 0.354439 65.3345 0.522439 65.3345 0.727772V2.96777C65.3345 3.17311 65.2598 3.34111 65.1105 3.47177C64.9798 3.60244 64.8118 3.66777 64.6065 3.66777H61.6665ZM69.462 20.4678C69.2567 20.4678 69.0887 20.4024 68.958 20.2718C68.8274 20.1411 68.762 19.9731 68.762 19.7678V1.28777C68.762 1.08244 68.8274 0.914439 68.958 0.783773C69.0887 0.653106 69.2567 0.587772 69.462 0.587772H72.206C72.3927 0.587772 72.5514 0.653106 72.682 0.783773C72.8127 0.914439 72.878 1.08244 72.878 1.28777V10.7518L77.19 6.38377C77.3394 6.25311 77.47 6.14111 77.582 6.04777C77.7127 5.95444 77.9087 5.90777 78.17 5.90777H81.334C81.5207 5.90777 81.67 5.97311 81.782 6.10377C81.894 6.21577 81.95 6.35577 81.95 6.52377C81.95 6.59844 81.9314 6.68244 81.894 6.77577C81.8567 6.86911 81.7914 6.94377 81.698 6.99977L76.294 12.4318L82.398 19.4038C82.566 19.5531 82.65 19.7024 82.65 19.8518C82.65 20.0198 82.5847 20.1691 82.454 20.2998C82.342 20.4118 82.202 20.4678 82.034 20.4678H78.786C78.506 20.4678 78.3007 20.4211 78.17 20.3278C78.058 20.2344 77.9274 20.1224 77.778 19.9918L72.878 14.5038V19.7678C72.878 19.9731 72.8127 20.1411 72.682 20.2718C72.5514 20.4024 72.3927 20.4678 72.206 20.4678H69.462ZM85.3488 20.4678C85.1434 20.4678 84.9754 20.4024 84.8448 20.2718C84.7141 20.1411 84.6488 19.9731 84.6488 19.7678V1.28777C84.6488 1.08244 84.7141 0.914439 84.8448 0.783773C84.9754 0.653106 85.1434 0.587772 85.3488 0.587772H88.3728C88.5594 0.587772 88.7181 0.653106 88.8488 0.783773C88.9794 0.914439 89.0448 1.08244 89.0448 1.28777V7.58777C89.5488 6.99044 90.1648 6.51444 90.8928 6.15977C91.6208 5.80511 92.4981 5.62777 93.5248 5.62777C94.6261 5.62777 95.5968 5.87977 96.4368 6.38377C97.2954 6.86911 97.9674 7.58777 98.4528 8.53977C98.9381 9.47311 99.1808 10.6118 99.1808 11.9558V19.7678C99.1808 19.9731 99.1154 20.1411 98.9848 20.2718C98.8541 20.4024 98.6861 20.4678 98.4808 20.4678H95.4288C95.2421 20.4678 95.0834 20.4024 94.9528 20.2718C94.8221 20.1411 94.7568 19.9731 94.7568 19.7678V12.1238C94.7568 11.1344 94.5141 10.3691 94.0288 9.82777C93.5434 9.26777 92.8528 8.98777 91.9568 8.98777C91.0794 8.98777 90.3701 9.26777 89.8288 9.82777C89.3061 10.3691 89.0448 11.1344 89.0448 12.1238V19.7678C89.0448 19.9731 88.9794 20.1411 88.8488 20.2718C88.7181 20.4024 88.5594 20.4678 88.3728 20.4678H85.3488ZM109.196 20.7478C107.646 20.7478 106.349 20.4958 105.304 19.9918C104.258 19.4691 103.456 18.7318 102.896 17.7798C102.354 16.8278 102.056 15.7171 102 14.4478C101.981 14.0744 101.972 13.6544 101.972 13.1878C101.972 12.7024 101.981 12.2824 102 11.9278C102.056 10.6398 102.373 9.52911 102.952 8.59577C103.53 7.64377 104.342 6.91577 105.388 6.41177C106.433 5.88911 107.702 5.62777 109.196 5.62777C110.67 5.62777 111.93 5.88911 112.976 6.41177C114.021 6.91577 114.833 7.64377 115.412 8.59577C115.99 9.52911 116.308 10.6398 116.364 11.9278C116.401 12.2824 116.42 12.7024 116.42 13.1878C116.42 13.6544 116.401 14.0744 116.364 14.4478C116.308 15.7171 116 16.8278 115.44 17.7798C114.898 18.7318 114.105 19.4691 113.06 19.9918C112.014 20.4958 110.726 20.7478 109.196 20.7478ZM109.196 17.6678C110.11 17.6678 110.801 17.3878 111.268 16.8278C111.734 16.2491 111.986 15.4091 112.024 14.3078C112.042 14.0278 112.052 13.6544 112.052 13.1878C112.052 12.7211 112.042 12.3478 112.024 12.0678C111.986 10.9851 111.734 10.1544 111.268 9.57577C110.801 8.99711 110.11 8.70777 109.196 8.70777C108.281 8.70777 107.581 8.99711 107.096 9.57577C106.629 10.1544 106.377 10.9851 106.34 12.0678C106.321 12.3478 106.312 12.7211 106.312 13.1878C106.312 13.6544 106.321 14.0278 106.34 14.3078C106.377 15.4091 106.629 16.2491 107.096 16.8278C107.581 17.3878 108.281 17.6678 109.196 17.6678ZM123.953 20.4678C123.673 20.4678 123.458 20.4024 123.309 20.2718C123.178 20.1224 123.066 19.9544 122.973 19.7678L117.709 6.77577C117.672 6.70111 117.653 6.61711 117.653 6.52377C117.653 6.35577 117.709 6.21577 117.821 6.10377C117.952 5.97311 118.101 5.90777 118.269 5.90777H120.985C121.228 5.90777 121.405 5.97311 121.517 6.10377C121.648 6.23444 121.732 6.35577 121.769 6.46777L125.213 15.7078L128.657 6.46777C128.713 6.35577 128.797 6.23444 128.909 6.10377C129.04 5.97311 129.217 5.90777 129.441 5.90777H132.157C132.325 5.90777 132.465 5.97311 132.577 6.10377C132.708 6.21577 132.773 6.35577 132.773 6.52377C132.773 6.61711 132.764 6.70111 132.745 6.77577L127.453 19.7678C127.378 19.9544 127.266 20.1224 127.117 20.2718C126.968 20.4024 126.753 20.4678 126.473 20.4678H123.953ZM134.345 20.4678C134.139 20.4678 133.971 20.4024 133.841 20.2718C133.71 20.1411 133.645 19.9731 133.645 19.7678V16.6318C133.645 16.4264 133.71 16.2584 133.841 16.1278C133.971 15.9971 134.139 15.9318 134.345 15.9318H137.481C137.686 15.9318 137.854 15.9971 137.985 16.1278C138.115 16.2584 138.181 16.4264 138.181 16.6318V19.7678C138.181 19.9731 138.115 20.1411 137.985 20.2718C137.854 20.4024 137.686 20.4678 137.481 20.4678H134.345ZM142.223 20.4678C142.036 20.4678 141.878 20.4024 141.747 20.2718C141.616 20.1411 141.551 19.9731 141.551 19.7678V6.60777C141.551 6.40244 141.616 6.23444 141.747 6.10377C141.878 5.97311 142.036 5.90777 142.223 5.90777H144.827C145.014 5.90777 145.172 5.97311 145.303 6.10377C145.452 6.23444 145.527 6.40244 145.527 6.60777V7.55977C145.9 7.03711 146.414 6.58911 147.067 6.21577C147.739 5.84244 148.532 5.64644 149.447 5.62777C151.612 5.59044 153.096 6.41177 153.899 8.09177C154.328 7.36377 154.944 6.77577 155.747 6.32777C156.568 5.86111 157.464 5.62777 158.435 5.62777C159.406 5.62777 160.283 5.85177 161.067 6.29977C161.851 6.72911 162.467 7.40111 162.915 8.31577C163.382 9.21177 163.615 10.3691 163.615 11.7878V19.7678C163.615 19.9731 163.55 20.1411 163.419 20.2718C163.288 20.4024 163.13 20.4678 162.943 20.4678H160.171C159.984 20.4678 159.826 20.4024 159.695 20.2718C159.564 20.1411 159.499 19.9731 159.499 19.7678V12.0118C159.499 11.2464 159.387 10.6491 159.163 10.2198C158.939 9.77177 158.64 9.45444 158.267 9.26777C157.912 9.08111 157.511 8.98777 157.063 8.98777C156.671 8.98777 156.288 9.08111 155.915 9.26777C155.56 9.45444 155.262 9.77177 155.019 10.2198C154.795 10.6491 154.683 11.2464 154.683 12.0118V19.7678C154.683 19.9731 154.618 20.1411 154.487 20.2718C154.356 20.4024 154.188 20.4678 153.983 20.4678H151.239C151.034 20.4678 150.866 20.4024 150.735 20.2718C150.604 20.1411 150.539 19.9731 150.539 19.7678V12.0118C150.539 11.2464 150.427 10.6491 150.203 10.2198C149.979 9.77177 149.68 9.45444 149.307 9.26777C148.952 9.08111 148.56 8.98777 148.131 8.98777C147.739 8.98777 147.356 9.09044 146.983 9.29577C146.61 9.48244 146.302 9.79044 146.059 10.2198C145.835 10.6491 145.723 11.2371 145.723 11.9838V19.7678C145.723 19.9731 145.658 20.1411 145.527 20.2718C145.396 20.4024 145.238 20.4678 145.051 20.4678H142.223ZM173.504 20.7478C171.357 20.7478 169.649 20.1504 168.38 18.9558C167.129 17.7611 166.467 16.0251 166.392 13.7478C166.392 13.5984 166.392 13.4024 166.392 13.1598C166.392 12.8984 166.392 12.6931 166.392 12.5438C166.467 11.1064 166.793 9.87444 167.372 8.84777C167.951 7.80244 168.763 7.00911 169.808 6.46777C170.853 5.90777 172.076 5.62777 173.476 5.62777C175.044 5.62777 176.351 5.95444 177.396 6.60777C178.46 7.24244 179.253 8.11977 179.776 9.23977C180.317 10.3411 180.588 11.6104 180.588 13.0478V13.6918C180.588 13.8784 180.513 14.0371 180.364 14.1678C180.233 14.2984 180.075 14.3638 179.888 14.3638H170.732C170.732 14.3824 170.732 14.4198 170.732 14.4758C170.732 14.5131 170.732 14.5504 170.732 14.5878C170.751 15.1851 170.863 15.7358 171.068 16.2398C171.292 16.7251 171.6 17.1171 171.992 17.4158C172.403 17.7144 172.888 17.8638 173.448 17.8638C173.915 17.8638 174.297 17.7984 174.596 17.6678C174.895 17.5371 175.137 17.3784 175.324 17.1918C175.529 17.0051 175.679 16.8464 175.772 16.7158C175.94 16.5291 176.071 16.4171 176.164 16.3798C176.276 16.3238 176.444 16.2958 176.668 16.2958H179.58C179.767 16.2958 179.916 16.3518 180.028 16.4638C180.159 16.5571 180.215 16.6971 180.196 16.8838C180.177 17.1824 180.019 17.5558 179.72 18.0038C179.44 18.4331 179.02 18.8624 178.46 19.2918C177.9 19.7024 177.2 20.0478 176.36 20.3278C175.539 20.6078 174.587 20.7478 173.504 20.7478ZM170.732 11.8158H176.22V11.7598C176.22 11.0878 176.108 10.5091 175.884 10.0238C175.679 9.51977 175.371 9.12777 174.96 8.84777C174.549 8.56777 174.055 8.42777 173.476 8.42777C172.897 8.42777 172.403 8.56777 171.992 8.84777C171.581 9.12777 171.264 9.51977 171.04 10.0238C170.835 10.5091 170.732 11.0878 170.732 11.7598V11.8158Z" fill="#535353"/>
</svg>
